<svg width="39" height="49" viewBox="0 0 39 49" fill="none" xmlns="http://www.w3.org/2000/svg">
<g id="Group 346">
<path id="Vector" fill-rule="evenodd" clip-rule="evenodd" d="M19.0937 48.8064C17.5493 47.0064 15.8275 45.1031 14.0468 43.1335C10.2857 38.9728 6.28824 34.554 3.54687 30.681C2.37938 29.0064 1.49262 27.2138 0.894102 25.3253C0.302971 23.4589 0 21.4967 0 19.4753C0 14.0975 2.17982 9.22862 5.70444 5.7024C9.23645 2.17619 14.1133 0 19.5 0C24.8867 0 29.7635 2.17619 33.2881 5.7024C36.8201 9.22862 39 14.0975 39 19.4753C39 21.4893 38.6896 23.4737 38.0985 25.3548C37.4999 27.236 36.6132 29.036 35.4531 30.681C32.7118 34.5613 28.7143 38.9802 24.9532 43.1335C23.1725 45.1031 21.4432 47.0064 19.8989 48.8138C19.7142 49.0351 19.3744 49.0646 19.1453 48.8728C19.1379 48.8507 19.1158 48.8285 19.0937 48.8064ZM19.5 10.8368C17.1133 10.8368 14.9557 11.8032 13.3892 13.3671C11.8227 14.9311 10.8546 17.0851 10.8546 19.4679C10.8546 21.8507 11.8227 24.0049 13.3892 25.5688C14.9557 27.1327 17.1133 28.0991 19.5 28.0991C21.8867 28.0991 24.0443 27.1327 25.6108 25.5688C27.1773 24.0122 28.1454 21.8507 28.1454 19.4679C28.1454 17.0851 27.1773 14.9311 25.6108 13.3671C24.0443 11.8032 21.8941 10.8368 19.5 10.8368ZM12.6356 12.6148C10.8844 14.3705 9.7907 16.7901 9.7907 19.4679H9.79814C9.79814 22.1458 10.877 24.5654 12.6356 26.3212C14.3942 28.0769 16.8252 29.1614 19.5074 29.1614C22.1897 29.1614 24.6132 28.0769 26.3718 26.3212C28.1305 24.5654 29.2167 22.1458 29.2167 19.4679C29.2167 16.7901 28.1379 14.3705 26.3718 12.6148C24.6206 10.8664 22.1971 9.77454 19.5074 9.77454C16.8178 9.77454 14.3942 10.8664 12.6356 12.6148ZM14.8301 42.4252C16.4853 44.2473 18.0813 46.0179 19.5 47.6482C20.9113 46.0179 22.5147 44.2473 24.1699 42.4252C27.9014 38.2941 31.8693 33.9122 34.5811 30.0688C35.6747 28.5122 36.5246 26.8229 37.0862 25.0303C37.6478 23.2377 37.9433 21.3712 37.9433 19.4679H37.9359C37.9359 14.3851 35.8744 9.78189 32.5419 6.44747C29.2094 3.11305 24.5985 1.05495 19.5 1.05495C14.4015 1.05495 9.79795 3.12043 6.45806 6.44747C3.11817 9.77451 1.05669 14.3851 1.05669 19.4679C1.05669 21.3859 1.34479 23.2376 1.90637 25.0007C2.46794 26.7859 3.3105 28.4754 4.41887 30.0688C7.13808 33.9122 11.106 38.2941 14.8301 42.4252Z" fill="url(#paint0_linear_130_1223)"/>
</g>
<defs>
<linearGradient id="paint0_linear_130_1223" x1="19.5" y1="0" x2="19.5" y2="49" gradientUnits="userSpaceOnUse">
<stop stop-color="#F45B06"/>
<stop offset="1" stop-color="#8E3503"/>
</linearGradient>
</defs>
</svg>
