<svg width="51" height="48" viewBox="0 0 51 48" fill="none" xmlns="http://www.w3.org/2000/svg">
<g id="Group">
<g id="Group_2">
<path id="Vector" fill-rule="evenodd" clip-rule="evenodd" d="M42.1171 29.3784L49.9604 37.2199C50.1787 37.4381 50.1787 37.7967 49.9604 38.015C49.8513 38.1319 49.711 38.1787 49.5628 38.1787H40.3005V47.4388C40.3005 47.7506 40.0432 48 39.7313 48C39.5832 48 39.435 47.9377 39.3415 47.8363L39.3337 47.8286L30.0558 38.5528C28.4887 38.9582 26.8514 39.1764 25.1595 39.1764C23.8575 39.1764 22.571 39.0438 21.3391 38.7944C20.9103 38.7087 20.4894 38.6151 20.0683 38.506L10.7827 47.7896L10.7748 47.7973C10.6735 47.9065 10.5332 47.9611 10.3772 47.9611C10.0654 47.9611 9.81582 47.7116 9.81582 47.3998V38.1396H0.553462C0.413123 38.1396 0.265084 38.0851 0.163728 37.976C-0.054576 37.7577 -0.054576 37.3992 0.163728 37.1731L8.11615 29.2147C7.72632 28.521 7.37552 27.8038 7.06365 27.0711C6.58027 25.9019 6.20599 24.6704 5.9487 23.3998C5.70701 22.1683 5.57455 20.8899 5.57455 19.5804C5.57455 18.2786 5.70701 17.0003 5.9487 15.7687C6.19819 14.4982 6.57247 13.2745 7.06365 12.0975C7.55484 10.9049 8.17073 9.76674 8.87242 8.70665C9.5897 7.63877 10.4084 6.64107 11.3128 5.73688V5.72915C12.2172 4.83275 13.2152 4.00642 14.2911 3.29709C15.3514 2.58777 16.4897 1.97982 17.6826 1.48875C18.8521 1.00548 20.0839 0.631288 21.347 0.374061C22.5866 0.132424 23.8653 0 25.1674 0C26.4694 0 27.7557 0.132424 28.9876 0.374061C30.2584 0.623494 31.4826 0.997683 32.6598 1.48875C33.8527 1.97982 34.9832 2.59557 36.0435 3.29709C37.1194 4.01421 38.1175 4.83275 39.0141 5.72915L39.0452 5.76804C39.9341 6.66444 40.7448 7.64657 41.4543 8.70665C42.1638 9.76674 42.7642 10.8971 43.2632 12.0975C43.7466 13.2667 44.1207 14.4982 44.378 15.7687C44.6197 17.0003 44.7523 18.2786 44.7523 19.5804C44.7523 20.8899 44.6197 22.1683 44.378 23.3998C44.1207 24.6704 43.7466 25.8941 43.2632 27.0711C42.9201 27.874 42.5381 28.6457 42.1171 29.3784ZM18.852 38.1319L18.6494 38.0617L18.6962 38.0773L18.852 38.1319ZM18.6494 38.0695L18.6337 38.0617L18.6181 38.0539H18.6026L18.587 38.0462L18.5714 38.0383H18.5637L18.5558 38.0306L18.5402 38.0227H18.5246L18.5168 38.015L18.5012 38.0071L18.4856 37.9994L18.47 37.9916H18.4544L18.4389 37.9838L18.4233 37.976H18.4154V37.9681L18.3998 37.9604H18.3842L18.3687 37.9526L18.3531 37.9448H18.3375L18.3219 37.937L18.3141 37.9292L18.2596 37.9137C18.0725 37.8357 17.8853 37.7577 17.706 37.6876C16.5131 37.2043 15.3825 36.5885 14.3144 35.8869C13.2463 35.1698 12.2483 34.3515 11.3439 33.4473L11.3206 33.4239L11.305 33.4083L11.2972 33.3927L11.2738 33.3693V33.3615L11.2504 33.3381L11.2349 33.3225L11.227 33.3147L11.2037 33.2835L11.1958 33.2758L11.1802 33.2602L11.1568 33.229L11.1335 33.2056L11.1256 33.19L11.1179 33.1744L11.0945 33.1433L11.0712 33.1198L11.0555 33.0964V33.0887L11.0321 33.0653L11.0243 33.0575L11.0087 33.0341L10.9854 33.0029L10.9619 32.9795L10.9152 32.925V32.9172L10.8606 32.8626L10.8371 32.8393L10.8294 32.8314C10.346 32.3014 9.87822 31.7324 9.4494 31.14L9.43382 31.1166L9.42597 31.1088L9.41824 31.0933L9.40265 31.0777C9.33248 30.9763 9.26231 30.8906 9.19993 30.7892L9.18435 30.7658V30.7581L9.1765 30.7425L9.16876 30.7191L9.16091 30.7112V30.7035L9.14533 30.6801L9.12974 30.6567L9.11416 30.6333L9.09857 30.61V30.6022L9.09072 30.5866L9.07514 30.5631L9.0674 30.5554L9.05955 30.5398L9.04397 30.5164L9.03623 30.5008L9.02065 30.4774L9.00495 30.4541L8.98936 30.4306L8.98163 30.4073V30.3995L8.96605 30.3839L8.95046 30.3605V30.3449L8.94261 30.3372L8.92702 30.3137L8.91929 30.2981V30.2904L8.90371 30.267L8.89585 30.2514V30.2436L8.88027 30.2202L8.87242 30.1968L2.066 36.9938H10.5332C10.8451 36.9938 11.0945 37.2511 11.0945 37.5551V46.028L19.008 38.1085L18.6494 38.0695ZM18.0958 36.6586C18.2907 36.7366 18.4857 36.8146 18.6806 36.8847H18.6962L18.7039 36.8926L18.7195 36.9003H18.7351L18.8053 36.9315L18.8209 36.9393L18.8364 36.947H18.852L18.8677 36.9549H18.8755L18.8833 36.9626H18.8989L18.9066 36.9705L18.9222 36.9782L18.9378 36.9861H18.9534L18.969 36.9938L18.9768 37.0016H18.9847L19.0003 37.0095L19.0158 37.0172H19.0314L19.047 37.0251L19.0626 37.0328H19.0703L19.0782 37.0406H19.086L19.1016 37.0484L19.1172 37.0562H19.1249L19.1405 37.064L19.1561 37.0718H19.164L19.1795 37.0795H19.1873L19.203 37.0874L19.2107 37.0951H19.2186H19.2263L19.2419 37.103L19.2575 37.1108H19.273L19.2886 37.1186L19.3043 37.1264H19.3121H19.3199L19.3277 37.1341L19.3432 37.142H19.3511L19.4134 37.1576V37.1653C19.6005 37.2277 19.7955 37.2822 19.9904 37.3368L20.0293 37.3524C20.5127 37.4927 20.9962 37.6018 21.4874 37.7031C22.6569 37.9292 23.8575 38.0539 25.0972 38.0539C26.789 38.0539 28.4262 37.8278 29.9778 37.3991C30.0011 37.3991 30.0246 37.3913 30.0479 37.3836H30.0558L30.1181 37.368L30.1649 37.3524L30.1883 37.3447L30.2585 37.3212H30.2662L30.3209 37.2978L30.391 37.2745L30.4612 37.2589L30.469 37.2511L30.5313 37.2355C31.8567 36.8223 33.1198 36.2689 34.2971 35.5829L34.3595 35.544L34.4219 35.5129L34.4686 35.4817L34.4842 35.466L34.7415 35.3102L34.7571 35.3024L34.8039 35.2712L34.8585 35.24L34.8662 35.2322L34.9287 35.1933L34.952 35.1777L34.991 35.1464L35.0456 35.1153L35.0533 35.1075L35.1158 35.0685L35.1391 35.053L35.1781 35.0218L35.2327 34.9906L35.2405 34.9828L35.3028 34.936L35.3262 34.9205L35.3574 34.897L35.4197 34.8581L35.4822 34.8113L35.5055 34.7957L35.5367 34.7724L35.5991 34.7256L35.6615 34.6788L35.6927 34.6555L35.7238 34.6399L35.7863 34.593L35.8408 34.5463L35.8721 34.523L35.8954 34.5074L35.9577 34.4605L35.9656 34.4528L36.0202 34.4138L36.0513 34.3903L36.0747 34.367L36.1371 34.3203L36.1917 34.2734L36.2306 34.2501L36.2541 34.2345L36.3087 34.1799H36.3164L36.4022 34.102L36.4256 34.0942L36.4801 34.0396L36.4879 34.0319L36.5347 33.9929L36.5737 33.9617L36.5893 33.9461L36.6439 33.8994L36.6595 33.8915L36.6984 33.8525L36.7374 33.8136L36.753 33.8058L36.8232 33.7434L36.8622 33.7044L36.909 33.6733L36.9246 33.6577L36.9792 33.6031L36.9947 33.5954L37.0336 33.5563L37.0805 33.5173L37.0882 33.5096L37.1429 33.4629L37.1584 33.4473L37.1975 33.4083L37.2442 33.3693L37.3066 33.3069L37.3221 33.2914L37.3533 33.2523L37.4002 33.2134L37.4079 33.2056L37.4625 33.151L37.4858 33.1354L37.5171 33.1043L37.5716 33.0575V33.0497L37.6262 32.9952L37.6418 32.9718L37.673 32.9483L37.7198 32.8939L37.7743 32.8393L37.7978 32.8158L37.8289 32.7847L37.8835 32.7379L37.9381 32.6833L37.9615 32.6522L37.9849 32.6287L38.0395 32.5743C38.5619 32.052 39.053 31.4986 39.5052 30.9217C39.9652 30.3449 40.3784 29.737 40.7682 29.1134L40.7761 29.0978C41.2595 28.295 41.6882 27.4531 42.0469 26.5879C42.5069 25.4888 42.8577 24.3273 43.0916 23.1347C43.3255 21.9733 43.4425 20.7573 43.4425 19.5258C43.4425 18.2942 43.3255 17.0939 43.0916 15.9247C42.85 14.7243 42.4991 13.5628 42.0469 12.4715C41.5791 11.3413 41.01 10.2812 40.3395 9.2835C39.669 8.28578 38.9049 7.35818 38.0628 6.50855L38.0317 6.48524C37.174 5.62782 36.2385 4.85609 35.2327 4.17795C34.2348 3.5154 33.1665 2.93863 32.0438 2.47095C30.9445 2.01106 29.7829 1.66027 28.59 1.42643C27.4283 1.20038 26.2198 1.07568 24.9879 1.07568C23.7483 1.07568 22.5476 1.20038 21.3782 1.42643C20.1775 1.66027 19.0236 2.01106 17.9243 2.47095C16.8016 2.93863 15.7334 3.5076 14.7354 4.17795C13.7297 4.85609 12.7941 5.62782 11.9365 6.48524C11.0789 7.33487 10.3148 8.27019 9.63654 9.2835C8.96603 10.2812 8.38913 11.3491 7.92913 12.4715C7.47693 13.5706 7.11827 14.7243 6.88437 15.9247C6.65827 17.0861 6.53354 18.2942 6.53354 19.5258C6.53354 20.7573 6.65827 21.9655 6.88437 23.1347C7.11827 24.3273 7.47693 25.4966 7.92913 26.5879C8.27218 27.4063 8.66981 28.2014 9.12201 28.9575V28.9731L9.14533 29.0042L9.15318 29.0198L9.16091 29.0354L9.1765 29.0665L9.19208 29.0978L9.19993 29.1134L9.20767 29.129L9.22325 29.1601L9.2311 29.1679L9.23895 29.1913L9.24669 29.2147L9.25454 29.2225L9.27012 29.2536V29.2692L9.28571 29.2848L9.30129 29.3161L9.32461 29.3472L9.33246 29.3628L9.34031 29.3784L9.3559 29.4096L9.37148 29.4407L9.37922 29.4563L9.38707 29.4719L9.40265 29.503V29.5109L9.41824 29.5343L9.42597 29.5576L9.43382 29.5655L9.4494 29.5966L9.45726 29.6044L9.47284 29.6278L9.48843 29.6512V29.659L9.50401 29.6901L9.51174 29.698L9.5196 29.7213L9.54291 29.7526L9.55862 29.7759L9.56635 29.7993L9.5742 29.8071L9.58979 29.8382V29.8461L9.60537 29.8695L9.6131 29.8928L9.62095 29.9007L9.63654 29.9318L9.64427 29.9395L9.65998 29.963L9.67556 29.9864V29.9941L9.69888 30.0253L9.70673 30.0332L9.72231 30.0487L9.7379 30.0877L9.75348 30.1111L9.81582 30.2047L9.83141 30.228L9.87043 30.2904L9.89386 30.3216L9.9562 30.4073L9.96393 30.4151L10.0185 30.5008L10.0264 30.5087C10.385 30.9919 10.767 31.4596 11.1647 31.9117L11.1724 31.9195L11.3128 32.0753L11.3284 32.0909L11.3362 32.1065L11.3595 32.1299L11.383 32.1534L11.3985 32.1767L11.4765 32.2624L11.4999 32.2936L11.5078 32.3014L11.5233 32.317L11.5467 32.3403L11.5701 32.3716L11.5857 32.3872L11.5934 32.3949L11.6169 32.4261L11.6324 32.4495L11.648 32.4729H11.6559L11.6792 32.5041L11.687 32.5118L11.7026 32.5274L11.7182 32.5508L11.7261 32.5587L11.7494 32.582L11.7572 32.5976L11.7728 32.6132L11.7961 32.6366C12.646 33.4862 13.5816 34.2657 14.5952 34.936C15.8972 35.6142 16.973 36.1831 18.0958 36.6586ZM11.6948 16.0104C11.5388 16.0104 11.3908 16.0805 11.2816 16.1974C11.0789 16.4312 11.1023 16.782 11.3362 16.9925L18.3298 23.1582L16.2948 32.2313C16.2559 32.3794 16.2714 32.5352 16.3493 32.6678C16.5053 32.9406 16.8483 33.0263 17.1212 32.8626L25.1518 28.1235L33.1822 32.8704C33.2992 32.9406 33.4472 32.9718 33.5875 32.9406C33.8916 32.8705 34.0788 32.5743 34.0164 32.2703L31.9815 23.166L38.9828 17.0081C39.0841 16.9145 39.1543 16.7898 39.1699 16.6339C39.1933 16.3299 38.975 16.0572 38.6631 16.026L29.3774 15.153L25.674 6.57872V6.58657C25.6195 6.45406 25.5181 6.35266 25.3778 6.2903C25.0893 6.16558 24.7619 6.29811 24.645 6.57872L20.9338 15.1451L11.6948 16.0104ZM21.3704 16.2287L13.0436 17.0081L19.3199 22.5424C19.4681 22.6749 19.546 22.8776 19.4992 23.0802L17.667 31.2413L24.8633 26.9854C25.0348 26.8762 25.253 26.8684 25.4401 26.9854L32.6364 31.2491L30.8198 23.1347C30.7574 22.9321 30.812 22.6905 30.9835 22.5424L37.2598 17.0159L28.972 16.2364C28.7615 16.2286 28.5588 16.104 28.4731 15.8935L25.1595 8.21568L21.8459 15.8701C21.768 16.0572 21.5887 16.2053 21.3704 16.2287ZM36.6049 35.4895C36.4957 35.5674 36.3944 35.6376 36.2852 35.7077V35.7156L36.2541 35.7389L36.2229 35.7545C36.1137 35.8324 36.0045 35.9104 35.8954 35.9806L35.8564 36.0039L35.8252 36.0194L35.7628 36.0663H35.755L35.6927 36.113L35.6303 36.1521L35.5601 36.1988H35.5524L35.4899 36.2377L35.451 36.269L35.4276 36.2846L35.3574 36.3235L35.3497 36.3313L35.2872 36.3703L35.2405 36.3936L35.2171 36.4092L35.147 36.4482L35.1391 36.4561L35.0845 36.495L35.0377 36.5184L35.0144 36.534L34.9598 36.5651L34.9364 36.5807L34.9052 36.5963L34.8506 36.6275L34.8273 36.643L34.7961 36.6586L34.7415 36.6976L34.7259 36.7055L34.6869 36.7288L34.6323 36.76L34.6246 36.7678L34.5778 36.7912L34.5232 36.8224H34.4998L34.453 36.8536L34.3984 36.8847L34.3438 36.9159L34.2893 36.9393L34.2815 36.947L34.2269 36.9782L34.1801 36.9938L34.1724 37.0016L34.1178 37.0328L34.0788 37.0562L34.0632 37.064L34.0086 37.0951L33.9697 37.1108L33.9541 37.1264L33.8916 37.1497L33.8683 37.1653L33.8371 37.1809L33.7825 37.212L33.7591 37.2199L33.7279 37.2355L33.6733 37.2666L33.65 37.2745L33.6188 37.2978L33.5642 37.3212L33.5486 37.3291L33.5019 37.3524L33.4473 37.3836L33.3927 37.407L33.3381 37.4304L33.2836 37.4616L33.229 37.4849L33.1744 37.516L33.1276 37.5395H33.1198L33.0653 37.5706L33.0263 37.5862L33.0107 37.5941L32.9561 37.6174L32.8937 37.6487L32.8391 37.672L32.691 37.7343L32.652 37.7421L32.5974 37.7733L32.5818 37.7812L32.5429 37.7967L32.4181 37.8435L32.3635 37.8669H32.3558L32.3012 37.8902C31.9815 38.0227 31.654 38.1319 31.3266 38.241L39.1778 46.0903V37.6174C39.1778 37.3134 39.4273 37.064 39.7313 37.064H48.1984L41.5089 30.3683C41.2049 30.8282 40.893 31.2647 40.5578 31.6934C40.0744 32.3092 39.5519 32.8939 38.9984 33.4473L38.9439 33.5096L38.9127 33.533L38.8893 33.5642L38.8347 33.6187L38.7801 33.6733L38.7489 33.7044L38.7256 33.7356L38.671 33.7902H38.6631L38.6164 33.8448L38.5852 33.8759L38.5618 33.8994L38.4994 33.9538L38.4448 34.0084L38.4137 34.0396L38.3903 34.063L38.3357 34.1176L38.3279 34.1254L38.2811 34.1721L38.2421 34.2034L38.2265 34.2267L38.1642 34.2813L38.1564 34.289L38.1096 34.3359L38.0707 34.367L38.0551 34.3826L38.0005 34.4372L37.9849 34.4528L37.9381 34.4917L37.8991 34.5307L37.8835 34.5463L37.8212 34.593L37.8055 34.6086L37.7666 34.6476L37.7198 34.6866L37.712 34.7022L37.6497 34.7489L37.6341 34.7645L37.595 34.8035L37.5327 34.8503L37.4702 34.9049L37.4079 34.9516L37.3612 34.9984L37.3533 35.0062L37.291 35.053L37.2286 35.1075L37.174 35.1464L37.1663 35.1543L37.1038 35.2089L37.0805 35.2245L37.0415 35.2556L36.9167 35.3491L36.8934 35.3725L36.8544 35.396L36.7218 35.4973L36.6984 35.5129L36.6049 35.4895Z" fill="url(#paint0_linear_130_1149)"/>
</g>
</g>
<defs>
<linearGradient id="paint0_linear_130_1149" x1="25.0621" y1="0" x2="25.0621" y2="48" gradientUnits="userSpaceOnUse">
<stop stop-color="#F45B06"/>
<stop offset="1" stop-color="#8E3503"/>
</linearGradient>
</defs>
</svg>
