<svg width="16" height="21" viewBox="0 0 16 21" fill="none" xmlns="http://www.w3.org/2000/svg">
<path id="Vector" fill-rule="evenodd" clip-rule="evenodd" d="M2.92097 13.4103C2.78003 13.4103 2.66731 13.2978 2.66731 13.1571C2.66731 13.0164 2.78003 12.9039 2.92097 12.9039H10.4823C10.6232 12.9039 10.7359 13.0164 10.7359 13.1571C10.7359 13.2978 10.6232 13.4103 10.4823 13.4103H2.92097ZM1.5257 0.00703013C1.10641 0.00703013 0.722355 0.179386 0.447527 0.453712C0.172698 0.728038 0 1.11139 0 1.5264V19.4807C0 19.8992 0.172698 20.279 0.447527 20.5533C0.722355 20.8277 1.10641 21 1.5257 21H14.4673C14.8866 21 15.2707 20.8277 15.5455 20.5533C15.8203 20.279 15.9929 19.8957 15.9929 19.4771L15.9965 5.65182L16 5.62719C16 5.55334 15.9648 5.48302 15.9119 5.4373L10.5562 0.0879303C10.5104 0.0316584 10.4435 0 10.3625 0H10.3413H1.5257V0.00703013ZM10.1053 0.513495H1.52215C1.2438 0.513495 0.990076 0.626038 0.803333 0.808921C0.620114 0.991805 0.507419 1.24855 0.507419 1.5264V19.4807H0.503871C0.503871 19.7585 0.616591 20.0117 0.803333 20.1981C0.990076 20.381 1.2438 20.4936 1.52215 20.4936H14.4638C14.7421 20.4936 14.9994 20.3775 15.1826 20.1946C15.3693 20.0117 15.482 19.7585 15.482 19.4771L15.489 5.88395H11.6274C11.2081 5.88395 10.8275 5.71162 10.5527 5.4373H10.5492H10.5457C10.2709 5.15946 10.1017 4.77962 10.1017 4.36461V0.513495H10.1053ZM15.1297 5.381H11.6309C11.3525 5.381 11.0989 5.26846 10.9157 5.08558H10.9122C10.7289 4.90269 10.6161 4.64597 10.6161 4.36813V0.87222L15.1297 5.381ZM12.1137 14.3001C12.5329 14.3001 12.917 14.4689 13.1918 14.7433C13.4667 15.0176 13.6357 15.3974 13.6357 15.8159C13.6357 16.2345 13.4631 16.6178 13.1918 16.8921C12.917 17.1665 12.5329 17.3353 12.1137 17.3353C11.6944 17.3353 11.3138 17.1665 11.0389 16.8921C10.7641 16.6178 10.5915 16.2345 10.5915 15.8159C10.5915 15.4009 10.7571 15.0281 11.0248 14.7538L11.0389 14.7433C11.3138 14.4689 11.6944 14.3001 12.1137 14.3001ZM10.6796 14.3881C11.046 14.0223 11.5534 13.7937 12.1137 13.7937C12.6704 13.7937 13.1812 14.0223 13.5476 14.3845C13.9141 14.7503 14.1431 15.2603 14.1431 15.8159C14.1431 16.3752 13.9176 16.8816 13.5476 17.2474C13.1812 17.6131 12.6704 17.8418 12.1137 17.8418C11.5534 17.8418 11.046 17.6166 10.6796 17.2474C10.3131 16.8816 10.0841 16.3752 10.0841 15.8159C10.0841 15.2673 10.3061 14.7644 10.6655 14.3986L10.6796 14.3881ZM2.92097 7.97657C2.78003 7.97657 2.66731 7.86049 2.66731 7.72333C2.66731 7.58616 2.78003 7.47011 2.92097 7.47011H11.8C11.9409 7.47011 12.0538 7.58616 12.0538 7.72333C12.0538 7.86049 11.9409 7.97657 11.8 7.97657H2.92097ZM2.92097 10.6108C2.78003 10.6108 2.66731 10.4947 2.66731 10.3576C2.66731 10.2204 2.78003 10.1043 2.92097 10.1043H12.5224C12.6633 10.1043 12.776 10.2204 12.776 10.3576C12.776 10.4947 12.6633 10.6108 12.5224 10.6108H2.92097Z" fill="#F45B06"/>
</svg>
