<svg width="20" height="14" viewBox="0 0 20 14" fill="none" xmlns="http://www.w3.org/2000/svg">
<path id="Vector" fill-rule="evenodd" clip-rule="evenodd" d="M9.73017 1.55063C10.0458 1.55063 10.3299 1.68118 10.5413 1.88814L10.554 1.90087C10.7496 2.10783 10.8758 2.3912 10.8758 2.70323C10.8758 3.02163 10.7496 3.31139 10.5413 3.52153L10.5287 3.53426C10.3236 3.73485 10.0426 3.85899 9.73335 3.85899C9.41459 3.85899 9.13058 3.72849 8.92228 3.52153C8.71713 3.31139 8.58768 3.02163 8.58768 2.70323C8.58768 2.38483 8.71713 2.0951 8.92228 1.88814C9.12427 1.678 9.41141 1.55063 9.73017 1.55063ZM9.73017 11.4178C9.60393 11.4178 9.50296 11.3159 9.50296 11.1885C9.50296 11.0612 9.60393 10.9593 9.73017 10.9593H16.6073C16.7335 10.9593 16.8345 11.0612 16.8345 11.1885C16.8345 11.3159 16.7335 11.4178 16.6073 11.4178H9.73017ZM9.73017 9.49467C9.60393 9.49467 9.50296 9.39277 9.50296 9.26541C9.50296 9.13805 9.60393 9.03619 9.73017 9.03619H18.0401C18.1663 9.03619 18.2674 9.14123 18.2674 9.26541C18.2674 9.39277 18.1663 9.49467 18.0401 9.49467H9.73017ZM4.6268 4.64863C5.16333 4.64863 5.65258 4.86832 6.00922 5.22493C6.35954 5.58153 6.58046 6.07507 6.58046 6.61953C6.58046 7.16081 6.3627 7.65431 6.00922 8.01092C5.89876 8.12236 5.77568 8.21789 5.64312 8.30068C6.07235 8.45351 6.46055 8.70187 6.773 9.02346L6.78562 9.03619C7.32846 9.58702 7.65978 10.348 7.65978 11.1854C7.65978 11.3128 7.55881 11.4146 7.43257 11.4146H1.82421C1.69797 11.4146 1.59701 11.3128 1.59701 11.1854C1.59701 10.3416 1.93472 9.57745 2.48388 9.02025C2.80264 8.70185 3.18769 8.45353 3.61376 8.29752C3.4812 8.21473 3.35497 8.11602 3.24766 8.00776C2.89418 7.65116 2.67324 7.1576 2.67324 6.61632C2.67324 6.07186 2.89103 5.57838 3.24766 5.22177C3.59483 4.86835 4.08711 4.64863 4.6268 4.64863ZM4.69942 8.58407C4.67418 8.58407 4.64889 8.58407 4.6268 8.58407C4.60471 8.58407 4.57637 8.58407 4.55428 8.58407C3.86941 8.60317 3.2539 8.89291 2.80259 9.34503C2.38599 9.76532 2.11146 10.3289 2.06096 10.953H7.199C7.14219 10.3321 6.87077 9.77166 6.46363 9.35456L6.4542 9.34503C5.99657 8.89291 5.38429 8.60317 4.69942 8.58407ZM5.68097 5.54971C5.40955 5.27589 5.03716 5.10711 4.62372 5.10711C4.21028 5.10711 3.83471 5.27589 3.56329 5.54971C3.29186 5.82035 3.12457 6.19922 3.12457 6.61632C3.12457 7.03342 3.29186 7.40916 3.56329 7.68298C3.81893 7.94088 4.16606 8.10647 4.5511 8.12558H4.62054H4.68998C5.07187 8.10647 5.41898 7.94088 5.67462 7.68298C5.94604 7.40916 6.11333 7.03342 6.11333 6.61632C6.11965 6.19922 5.9524 5.82353 5.68097 5.54971ZM1.36662 0.00318224C0.991048 0.00318224 0.647038 0.156035 0.400865 0.40757C0.151536 0.655921 0 1.00295 0 1.38185V12.6277C0 13.0066 0.151513 13.3473 0.397687 13.5988H0.400865C0.647038 13.8472 0.991048 14 1.36662 14H18.6335C19.009 14 19.3531 13.8472 19.6024 13.5988C19.8486 13.3473 20 13.0034 20 12.6245V1.37869C20 0.999794 19.8486 0.655923 19.6024 0.404388H19.5992C19.3531 0.152852 19.009 0 18.6335 0H1.36662V0.00318224ZM18.6335 0.461693H1.36662C1.11413 0.461693 0.890023 0.566763 0.722751 0.729147C0.558636 0.897898 0.454513 1.12715 0.454513 1.37869V12.6245C0.454513 12.8793 0.558636 13.1085 0.722751 13.2741C0.890023 13.4396 1.11413 13.5415 1.36662 13.5415H18.6335C18.886 13.5415 19.1131 13.4397 19.2772 13.2709C19.4445 13.1053 19.5456 12.8761 19.5456 12.6213V1.37548C19.5456 1.12076 19.4445 0.891532 19.2772 0.725964C19.1131 0.566765 18.886 0.461693 18.6335 0.461693ZM10.2162 2.21287C10.0931 2.0887 9.91954 2.01227 9.73017 2.01227C9.54081 2.01227 9.36723 2.0887 9.24099 2.21287C9.1179 2.34023 9.04219 2.51535 9.04219 2.70639C9.04219 2.90061 9.1179 3.07254 9.24099 3.1999C9.36723 3.32408 9.54081 3.40051 9.73017 3.40051C9.91638 3.40051 10.0805 3.32728 10.2067 3.20947L10.2162 3.1999C10.3393 3.07254 10.4183 2.90061 10.4183 2.70639C10.4183 2.51853 10.3456 2.34978 10.2257 2.2256L10.2162 2.21287Z" fill="#F45B06"/>
</svg>
